<?xml version="1.0" encoding="UTF-8"?>
<svg xmlns="http://www.w3.org/2000/svg" xmlns:xlink="http://www.w3.org/1999/xlink" width="2251" height="2326" viewBox="0 0 2251 2326">
<path fill-rule="nonzero" fill="rgb(0%, 0%, 0%)" fill-opacity="1" d="M 730.066406 7.839844 C 728.234375 12.039062 700.703125 98.601562 668.585938 200.558594 C 636.472656 302.238281 597.929688 424.089844 583.25 471.140625 C 568.261719 518.199219 542.875 598.871094 526.664062 650.410156 C 510.453125 701.949219 483.535156 787.109375 467.019531 839.488281 C 450.5 891.871094 420.832031 985.699219 401.257812 1048.171875 C 381.375 1110.628906 353.234375 1199.988281 338.550781 1247.050781 C 285.636719 1414.832031 239.753906 1560.488281 216.203125 1635 C 203.050781 1676.457031 176.132812 1761.609375 156.558594 1824.074219 C 136.675781 1886.539062 108.535156 1975.894531 93.855469 2022.949219 C 78.867188 2070.007812 52.257812 2154.601562 34.515625 2210.90625 C 16.777344 2267.207031 1.480469 2315.386719 0.5625 2317.625 C -0.964844 2320.988281 2.707031 2322.109375 19.527344 2323.507812 C 55.316406 2326.871094 649.929688 2325.75 652.070312 2322.667969 C 655.128906 2317.90625 661.859375 2294.378906 733.125 2038.355469 C 786.960938 1843.679688 801.949219 1793.542969 807.148438 1789.621094 C 812.957031 1785.136719 832.535156 1784.859375 1120.058594 1784.859375 L 1426.839844 1784.859375 L 1430.210938 1794.101562 C 1432.039062 1798.863281 1443.058594 1835.835938 1454.980469 1875.894531 C 1466.910156 1915.949219 1495.359375 2011.1875 1518.300781 2087.375 C 1540.929688 2163.566406 1566.019531 2247.320312 1573.96875 2273.648438 L 1588.039062 2321.269531 L 1601.800781 2323.230469 C 1609.449219 2324.070312 1758.410156 2325.1875 1933.058594 2325.1875 L 2250.25 2325.46875 L 2250.25 2318.746094 C 2250.25 2314.824219 2212.320312 2187.9375 2165.828125 2036.394531 C 2119.640625 1884.855469 2067.339844 1714.269531 2049.898438 1657.40625 C 2032.46875 1600.265625 1972.210938 1403.070312 1915.628906 1219.039062 C 1859.339844 1035 1771.871094 749.289062 1721.398438 584.589844 C 1671.230469 419.601562 1611.890625 226.050781 1589.871094 154.339844 C 1567.851562 82.351562 1549.808594 22.96875 1549.808594 22.128906 C 1549.808594 21.289062 1545.21875 15.960938 1539.398438 10.640625 L 1529.308594 0.558594 L 733.125 0.558594 Z M 1118.519531 461.898438 C 1121.890625 473.378906 1139.320312 545.371094 1164.410156 650.410156 C 1203.859375 817.078125 1224.660156 899.988281 1271.460938 1077.578125 C 1280.019531 1109.789062 1292.570312 1157.128906 1298.988281 1182.621094 C 1336.308594 1326.320312 1348.539062 1372.257812 1349.761719 1376.457031 C 1351.289062 1381.21875 1338.75 1381.5 1116.078125 1381.5 L 880.863281 1381.5 L 890.957031 1342.84375 C 896.460938 1321.839844 925.824219 1212.308594 956.105469 1099.988281 C 989.753906 975.339844 1025.539062 832.769531 1048.179688 734.441406 C 1068.671875 645.929688 1091.609375 548.171875 1098.949219 517.359375 C 1106.289062 486.550781 1112.410156 459.101562 1112.410156 456.578125 C 1112.410156 448.449219 1114.859375 450.691406 1118.519531 461.898438 Z M 1118.519531 461.898438 "/>
</svg>
