<?xml version="1.0" encoding="UTF-8"?>
<svg xmlns="http://www.w3.org/2000/svg" xmlns:xlink="http://www.w3.org/1999/xlink" width="2707" height="3000" viewBox="0 0 2707 3000">
<path fill-rule="nonzero" fill="rgb(0%, 0%, 0%)" fill-opacity="1" d="M 1298.109375 2997.070312 C 1272.101562 2964.171875 1224.039062 2824.097656 1200.679688 2713.15625 C 1164.859375 2542.957031 1159.960938 2486.289062 1174.28125 2407.351562 C 1186.808594 2338.222656 1179.191406 2239.675781 1157.28125 2187.742188 C 1149.261719 2168.726562 1158.941406 2166.964844 1271.5 2166.988281 L 1394.46875 2167.011719 L 1393.808594 2354 C 1393.210938 2524.355469 1390.199219 2550.492188 1359.921875 2647.851562 C 1336.539062 2723.046875 1324.410156 2793.105469 1319.019531 2884.269531 C 1313.199219 2982.65625 1308.171875 3009.792969 1298.109375 2997.070312 Z M 723.601562 2706.78125 C 723.601562 2615.46875 750.9375 2527.503906 823.085938 2386.628906 C 881.214844 2273.132812 884.160156 2262.800781 889.835938 2152.5625 L 895.773438 2037.238281 L 986.515625 2089.890625 C 1085.511719 2147.332031 1103.789062 2175.007812 1103.308594 2266.695312 C 1102.769531 2366.160156 1045 2449.71875 900.957031 2559.371094 C 803.273438 2633.730469 765.90625 2676.460938 752.761719 2728.835938 C 738.300781 2786.445312 723.601562 2775.324219 723.601562 2706.78125 Z M 1803.21875 2717.703125 C 1787.390625 2700.613281 1719.679688 2638.796875 1652.75 2580.339844 C 1499.449219 2446.4375 1465.839844 2392.992188 1465.769531 2283.035156 C 1465.71875 2191.40625 1479.308594 2171.789062 1585.960938 2109.738281 L 1646.828125 2074.316406 L 1667.320312 2169.164062 C 1678.589844 2221.332031 1707.839844 2313.238281 1732.320312 2373.402344 C 1811.101562 2567.015625 1864.570312 2748.777344 1842.75 2748.777344 C 1836.839844 2748.777344 1819.050781 2734.792969 1803.21875 2717.703125 Z M 2263.429688 2470.230469 C 2200.179688 2411.855469 2143.460938 2378.957031 1957.929688 2293.019531 C 1885.890625 2259.65625 1805.339844 2188.1875 1752.261719 2110.542969 L 1718.21875 2060.742188 L 1799.75 1972.921875 C 1864.859375 1902.800781 1882.488281 1889.429688 1887.230469 1906.609375 C 1890.5 1918.441406 1956.890625 1996.558594 2034.761719 2080.195312 C 2224.660156 2284.160156 2311.46875 2404.484375 2343.640625 2508.335938 C 2356.019531 2548.332031 2339.589844 2540.527344 2263.429688 2470.230469 Z M 177.410156 2454.230469 C 177.410156 2448.082031 224.164062 2403.023438 281.304688 2354.101562 C 380.644531 2269.054688 450.792969 2183.472656 561.066406 2012.808594 C 619.050781 1923.070312 673.53125 1881.988281 734.589844 1881.988281 C 787.390625 1881.988281 822.394531 1905.078125 842.238281 1952.988281 C 855.980469 1986.160156 853.898438 1995.71875 818.222656 2063.292969 C 756.230469 2180.722656 715 2234.8125 657.144531 2274.621094 C 599.121094 2314.542969 421.125 2390.636719 296.148438 2428.949219 C 253.699219 2441.960938 209.617188 2455.488281 198.1875 2459.007812 C 186.761719 2462.527344 177.410156 2460.378906 177.410156 2454.230469 Z M 1120.339844 2086.417969 C 957.644531 2028.890625 822.367188 1892.890625 771.519531 1735.738281 C 763.457031 1710.820312 759.382812 1687.890625 762.472656 1684.808594 C 765.558594 1681.71875 826.203125 1695.171875 897.234375 1714.691406 C 1212.660156 1801.378906 1403.980469 1807.75 1691.421875 1741.128906 C 1776.378906 1721.441406 1854.890625 1701.878906 1865.910156 1697.660156 C 1884.128906 1690.660156 1883.890625 1695.558594 1863.199219 1752.160156 C 1814.25 1886.070312 1702.191406 1999.769531 1558.199219 2061.582031 C 1472.859375 2098.21875 1454.699219 2101.539062 1323.230469 2104.53125 C 1210.210938 2107.101562 1168.25 2103.355469 1120.339844 2086.417969 Z M 2491.898438 2064.90625 C 2419.691406 1987.609375 2309.539062 1945.390625 2121.839844 1923.050781 C 2008.488281 1909.558594 1930.191406 1888.589844 1901.460938 1864.03125 C 1899.488281 1862.351562 1911.488281 1818.910156 1928.128906 1767.5 L 1958.390625 1674.019531 L 2056.390625 1677.871094 C 2130.089844 1680.78125 2169.480469 1688.929688 2215.261719 1710.769531 C 2324.570312 1762.929688 2487.539062 1944.640625 2525.890625 2057.132812 C 2541.78125 2103.71875 2530.550781 2106.285156 2491.898438 2064.90625 Z M 223.359375 1917.488281 C 161.136719 1907.679688 27.28125 1866.441406 13.75 1852.898438 C 10.464844 1849.621094 15.21875 1844.691406 24.320312 1841.960938 C 206.757812 1787.121094 295.683594 1744.75 397.074219 1664.359375 C 476.445312 1601.441406 540.019531 1573.851562 606.394531 1573.539062 C 666.949219 1573.25 663.714844 1569.191406 704.804688 1697.101562 C 736.269531 1795.039062 732.480469 1806.789062 667.203125 1813.671875 C 630.292969 1817.558594 581.828125 1836.628906 526.960938 1868.859375 C 457.695312 1909.53125 429.824219 1918.949219 366.664062 1923.058594 C 324.613281 1925.789062 260.128906 1923.28125 223.359375 1917.488281 Z M 738.445312 1588.269531 C 714.761719 1584.039062 711.75 1576.511719 711.910156 1521.980469 C 712.179688 1438.75 752.539062 1284 791.289062 1217.789062 C 839.339844 1135.691406 930.140625 1046.070312 1005.921875 1005.949219 C 1111.609375 950.011719 1188.570312 932.089844 1323.230469 932.089844 C 1514.191406 932.089844 1618 971.339844 1742 1090.398438 C 1869.808594 1213.128906 1926.820312 1345.28125 1920.429688 1503.960938 L 1916.921875 1591.089844 L 1341.039062 1592.070312 C 1024.308594 1592.609375 753.140625 1590.898438 738.445312 1588.269531 Z M 1972.800781 1511.050781 L 1976.289062 1425.070312 L 2029.71875 1417.25 C 2059.109375 1412.949219 2107.191406 1400.019531 2136.578125 1388.519531 C 2221.5 1355.269531 2354.980469 1353.230469 2467.058594 1383.480469 C 2554.019531 1406.941406 2706.519531 1482.929688 2706.519531 1502.800781 C 2706.519531 1507.351562 2657.101562 1513.570312 2596.691406 1516.621094 C 2520.289062 1520.480469 2449.339844 1533.570312 2363.609375 1559.601562 C 2256.25 1592.191406 2222.878906 1597.019531 2104.828125 1597.019531 L 1969.308594 1597.019531 Z M 320.433594 1465.480469 C 233.4375 1448.148438 142.386719 1395.929688 68.738281 1321.128906 C -1.152344 1250.148438 -18.453125 1219.378906 20.082031 1234.609375 C 31.511719 1239.121094 79.941406 1251.390625 127.707031 1261.871094 C 210.910156 1280.140625 220.617188 1279.839844 359.242188 1254.71875 C 438.824219 1240.300781 514.835938 1228.601562 528.160156 1228.71875 C 559.976562 1229 691.722656 1263.441406 701.691406 1274.070312 C 705.96875 1278.640625 700.574219 1325.109375 689.710938 1377.359375 L 669.953125 1472.351562 L 521.640625 1474.179688 C 440.066406 1475.191406 349.523438 1471.28125 320.433594 1465.480469 Z M 1968.96875 1335.890625 C 1958.421875 1329.640625 1938.128906 1297.441406 1923.890625 1264.339844 L 1898 1204.160156 L 1978.699219 1124.011719 C 2087.789062 1015.660156 2137.351562 993.851562 2335.808594 966.828125 C 2425.421875 954.621094 2516.101562 941.578125 2537.320312 937.828125 C 2558.550781 934.078125 2575.910156 935.660156 2575.910156 941.328125 C 2575.910156 947 2537.238281 977.96875 2489.980469 1010.140625 C 2442.710938 1042.320312 2347.5 1123.171875 2278.390625 1189.820312 C 2209.289062 1256.46875 2139.761719 1315.859375 2123.890625 1321.789062 C 2075 1340.039062 1989.171875 1347.859375 1968.96875 1335.890625 Z M 660.683594 1163.621094 C 506.066406 1099.601562 356.648438 952.351562 278.632812 787.121094 C 200.59375 621.828125 194.480469 570.441406 261.425781 642.46875 C 319 704.410156 438.148438 778.628906 562.574219 830.050781 C 632.546875 858.960938 711.332031 897.550781 737.648438 915.78125 C 782.738281 947.03125 842.339844 1019.660156 842.339844 1043.351562 C 842.339844 1049.269531 822.304688 1076.429688 797.8125 1103.710938 C 773.324219 1130.988281 747.945312 1162.050781 741.414062 1172.730469 C 730.621094 1190.371094 723.261719 1189.539062 660.683594 1163.621094 Z M 1813.308594 1051.890625 C 1777.128906 1019.558594 1774.429688 1011.941406 1774.480469 941.96875 C 1774.511719 881.28125 1780.851562 855.988281 1807.390625 810.789062 C 1853.289062 732.609375 1892.230469 706.640625 2122.570312 600.609375 C 2233.78125 549.421875 2340.691406 496.191406 2360.148438 482.339844 C 2425.46875 435.828125 2442.839844 457.71875 2390.609375 520.730469 C 2373.589844 541.269531 2324.058594 595.46875 2280.550781 641.179688 C 2151.808594 776.429688 2085.03125 853.261719 2013 948.960938 C 1969.949219 1006.160156 1928.011719 1047.960938 1898.609375 1062.960938 L 1852.191406 1086.640625 Z M 1587.421875 923.320312 C 1484.859375 873.640625 1483.511719 872.421875 1482.269531 828.328125 C 1478.511719 694.929688 1501.300781 649.179688 1619.761719 552.390625 C 1741.070312 453.261719 1815.988281 346.808594 1815.988281 273.570312 C 1815.988281 240.019531 1833.238281 233.109375 1844.398438 262.191406 C 1858.628906 299.25 1851.28125 500.910156 1833.179688 570.410156 C 1823.050781 609.339844 1790.558594 682.460938 1760.988281 732.910156 C 1718.910156 804.691406 1705.488281 840.820312 1699.269531 899.140625 L 1691.320312 973.648438 Z M 881.960938 881.628906 C 825.253906 794.921875 780.425781 707.46875 759.359375 642.441406 C 740.433594 584.019531 700.222656 346.328125 707.925781 338.410156 C 711.097656 335.148438 727.945312 348.691406 745.363281 368.5 C 762.78125 388.308594 793.238281 423.039062 813.042969 445.671875 C 832.847656 468.308594 883.574219 516.210938 925.765625 552.128906 C 967.957031 588.050781 1011.839844 628.121094 1023.300781 641.179688 C 1055.578125 678.011719 1115.351562 803.410156 1122.480469 849.269531 C 1128.859375 890.378906 1128.601562 890.660156 1051.511719 923.191406 C 1008.949219 941.140625 964.316406 955.839844 952.3125 955.839844 C 938.640625 955.839844 912.371094 928.128906 881.960938 881.628906 Z M 1204.839844 830.171875 C 1151.171875 701.71875 1152.5 625.128906 1211.640625 439.328125 C 1242.960938 340.949219 1249.660156 300.230469 1250.710938 201.859375 C 1251.410156 136.550781 1247.691406 64.410156 1242.429688 41.558594 L 1232.878906 0 L 1267.691406 37.148438 C 1305.328125 77.308594 1343.421875 181.179688 1395.390625 385.441406 C 1421.941406 489.769531 1425.53125 522.078125 1417.800781 587.289062 C 1412.730469 629.988281 1408.078125 711.679688 1407.460938 768.828125 L 1406.339844 872.71875 L 1222.621094 872.71875 Z M 1204.839844 830.171875 "/>
</svg>
