<?xml version="1.0" encoding="UTF-8"?>
<svg xmlns="http://www.w3.org/2000/svg" xmlns:xlink="http://www.w3.org/1999/xlink" width="2501" height="2501" viewBox="0 0 2501 2501">
<path fill-rule="nonzero" fill="rgb(19.993591%, 19.993591%, 19.993591%)" fill-opacity="1" d="M 1263.460938 885.050781 L 1675.191406 1195.761719 C 1680.511719 1199.769531 1683.308594 1205.878906 1683.308594 1212.070312 L 1683.351562 1212.070312 L 1683.351562 1727.746094 C 1683.351562 1739.054688 1674.179688 1748.222656 1662.871094 1748.222656 L 838.808594 1748.222656 C 827.5 1748.222656 818.335938 1739.054688 818.335938 1727.746094 L 818.335938 1212.070312 C 818.335938 1204.980469 821.941406 1198.730469 827.425781 1195.050781 L 1238.519531 884.820312 C 1246.089844 879.101562 1256.339844 879.449219 1263.460938 885.050781 Z M 1444.539062 1072.921875 L 1250.839844 926.738281 L 859.28125 1222.230469 L 859.28125 1707.273438 L 1642.398438 1707.273438 L 1642.398438 1222.230469 L 1444.539062 1072.921875 "/>
<path fill-rule="nonzero" fill="rgb(19.993591%, 19.993591%, 19.993591%)" fill-opacity="1" d="M 1263.460938 734.050781 L 1825.710938 1158.359375 C 1834.71875 1165.160156 1836.519531 1177.980469 1829.710938 1186.988281 C 1828.449219 1188.660156 1826.980469 1190.089844 1825.371094 1191.25 L 1730.980469 1262.480469 C 1723.410156 1268.191406 1713.160156 1267.839844 1706.039062 1262.25 L 1250.839844 918.730469 L 795.332031 1262.480469 C 787.765625 1268.191406 777.511719 1267.839844 770.390625 1262.25 L 675.964844 1190.988281 C 666.953125 1184.191406 665.164062 1171.371094 671.96875 1162.359375 C 673.230469 1160.691406 674.699219 1159.261719 676.3125 1158.101562 L 1238.519531 733.820312 C 1246.089844 728.109375 1256.339844 728.460938 1263.460938 734.050781 Z M 1519.800781 978.71875 L 1250.839844 775.75 L 722.21875 1174.671875 L 783.015625 1220.558594 L 1238.21875 877.039062 C 1245.339844 871.441406 1255.589844 871.089844 1263.160156 876.800781 L 1718.660156 1220.550781 L 1779.460938 1174.671875 L 1519.800781 978.71875 "/>
<path fill-rule="nonzero" fill="rgb(19.993591%, 19.993591%, 19.993591%)" fill-opacity="1" d="M 941.171875 1310.601562 L 1174.058594 1310.601562 C 1185.371094 1310.601562 1194.53125 1319.769531 1194.53125 1331.078125 L 1194.53125 1563.964844 C 1194.53125 1575.273438 1185.371094 1584.4375 1174.058594 1584.4375 L 941.171875 1584.4375 C 929.863281 1584.4375 920.695312 1575.273438 920.695312 1563.964844 L 920.695312 1331.078125 C 920.695312 1319.769531 929.863281 1310.601562 941.171875 1310.601562 Z M 1153.578125 1351.550781 L 961.644531 1351.550781 L 961.644531 1543.492188 L 1153.578125 1543.492188 L 1153.578125 1351.550781 "/>
<path fill-rule="nonzero" fill="rgb(19.993591%, 19.993591%, 19.993591%)" fill-opacity="1" d="M 1294.339844 1310.601562 L 1554.101562 1310.601562 C 1565.410156 1310.601562 1574.570312 1319.769531 1574.570312 1331.078125 L 1574.570312 1727.75 C 1574.570312 1739.058594 1565.410156 1748.226562 1554.101562 1748.226562 L 1294.339844 1748.226562 C 1283.03125 1748.226562 1273.871094 1739.058594 1273.871094 1727.75 L 1273.871094 1331.078125 C 1273.871094 1319.769531 1283.03125 1310.601562 1294.339844 1310.601562 Z M 1533.621094 1351.550781 L 1314.808594 1351.550781 L 1314.808594 1707.277344 L 1533.621094 1707.277344 L 1533.621094 1351.550781 "/>
<path fill-rule="nonzero" fill="rgb(19.993591%, 19.993591%, 19.993591%)" fill-opacity="1" d="M 1500.238281 848.410156 L 1617.960938 848.410156 C 1629.269531 848.410156 1638.441406 857.578125 1638.441406 868.890625 L 1638.441406 1027.191406 C 1638.441406 1038.5 1629.269531 1047.660156 1617.960938 1047.660156 C 1612.929688 1047.660156 1608.320312 1045.839844 1604.75 1042.828125 L 1487.921875 954.660156 C 1482.601562 950.648438 1479.800781 944.539062 1479.800781 938.351562 L 1479.761719 938.351562 L 1479.761719 868.890625 C 1479.761719 857.578125 1488.929688 848.410156 1500.238281 848.410156 Z M 1597.488281 889.359375 L 1520.710938 889.359375 L 1520.710938 928.191406 L 1597.488281 986.128906 L 1597.488281 889.359375 "/>
<path fill-rule="nonzero" fill="rgb(19.993591%, 19.993591%, 19.993591%)" fill-opacity="1" d="M 1742.660156 1707.273438 C 1753.960938 1707.273438 1763.128906 1716.441406 1763.128906 1727.746094 C 1763.128906 1739.054688 1753.960938 1748.222656 1742.660156 1748.222656 L 759.023438 1748.222656 C 747.714844 1748.222656 738.550781 1739.054688 738.550781 1727.746094 C 738.550781 1716.441406 747.714844 1707.273438 759.023438 1707.273438 L 1742.660156 1707.273438 "/>
</svg>
