<?xml version="1.0" encoding="UTF-8"?>
<svg xmlns="http://www.w3.org/2000/svg" xmlns:xlink="http://www.w3.org/1999/xlink" width="2834.88" height="2834.88" viewBox="0 0 2834.88 2834.88">
<path fill-rule="evenodd" fill="rgb(0%, 0%, 0%)" fill-opacity="1" d="M 769.109375 1777.230469 L 619.027344 1125.558594 C 616.8125 1125.789062 614.566406 1125.910156 612.289062 1125.910156 C 577.320312 1125.910156 548.925781 1097.519531 548.925781 1062.550781 C 548.925781 1027.578125 577.320312 999.191406 612.289062 999.191406 C 647.261719 999.191406 675.652344 1027.578125 675.652344 1062.550781 C 675.652344 1087.921875 660.714844 1109.820312 639.164062 1119.941406 C 707.640625 1229.269531 866.941406 1447.890625 1038.929688 1434.671875 C 1253.808594 1418.148438 1359.511719 1132.910156 1398.710938 993.171875 C 1372.679688 985.289062 1353.71875 961.101562 1353.71875 932.519531 C 1353.71875 897.550781 1382.109375 869.148438 1417.078125 869.148438 C 1452.050781 869.148438 1480.441406 897.550781 1480.441406 932.519531 C 1480.441406 960.929688 1461.691406 985.011719 1435.898438 993.03125 C 1475.070312 1132.71875 1580.761719 1418.148438 1795.71875 1434.671875 C 1967.699219 1447.890625 2127 1229.269531 2195.480469 1119.941406 C 2173.929688 1109.820312 2158.988281 1087.921875 2158.988281 1062.550781 C 2158.988281 1027.578125 2187.390625 999.191406 2222.359375 999.191406 C 2257.328125 999.191406 2285.71875 1027.578125 2285.71875 1062.550781 C 2285.71875 1097.519531 2257.328125 1125.910156 2222.359375 1125.910156 C 2220.078125 1125.910156 2217.828125 1125.789062 2215.621094 1125.558594 L 2065.488281 1777.398438 C 1628.640625 1687.488281 1196.558594 1688.449219 769.109375 1777.230469 Z M 2049.230469 1848.035156 L 2042.941406 1965.699219 C 1634.769531 1871.519531 1182.460938 1872.703125 784.144531 1965.699219 L 785.378906 1847.863281 C 1202.109375 1761.53125 1623.351562 1760.621094 2049.230469 1848.035156 Z M 972.296875 1104.601562 C 971.613281 1104.621094 970.925781 1104.628906 970.234375 1104.628906 C 935.261719 1104.628906 906.871094 1076.238281 906.871094 1041.269531 C 906.871094 1006.300781 935.261719 977.910156 970.234375 977.910156 C 1005.199219 977.910156 1033.601562 1006.300781 1033.601562 1041.269531 C 1033.601562 1066.109375 1019.269531 1087.628906 998.4375 1098.019531 C 1030.078125 1159.148438 1089.949219 1262.339844 1170.628906 1344.628906 C 1132.460938 1376.550781 1088.03125 1398.300781 1036.191406 1402.289062 C 999.261719 1405.121094 963.226562 1395.628906 928.8125 1378.390625 C 960.722656 1276.238281 969.835938 1168.878906 972.296875 1104.601562 Z M 1861.859375 1104.601562 C 1864.328125 1168.878906 1873.441406 1276.238281 1905.351562 1378.390625 C 1870.941406 1395.628906 1834.898438 1405.121094 1797.96875 1402.289062 C 1746.128906 1398.300781 1701.691406 1376.550781 1663.53125 1344.628906 C 1744.210938 1262.339844 1804.078125 1159.148438 1835.71875 1098.019531 C 1814.890625 1087.628906 1800.570312 1066.109375 1800.570312 1041.269531 C 1800.570312 1006.300781 1828.960938 977.910156 1863.929688 977.910156 C 1898.898438 977.910156 1927.289062 1006.300781 1927.289062 1041.269531 C 1927.289062 1076.238281 1898.898438 1104.628906 1863.929688 1104.628906 C 1863.238281 1104.628906 1862.550781 1104.621094 1861.859375 1104.601562 "/>
</svg>
