<?xml version="1.0" encoding="UTF-8"?>
<svg id="Layer_1" data-name="Layer 1" xmlns="http://www.w3.org/2000/svg" viewBox="0 0 1080 1080">
  <path d="M504.6,219.27c12.28-1.42,22.92,2.34,32.26,10.18,113.71,191.91,224.25,386.09,335.44,579.56,8.65,25.15-8.58,50.64-34.93,52.02H181.28c-23.74-1.88-40.55-23.82-35.17-47.25,2.42-10.54,12.02-24.66,17.53-34.47,103.46-184.32,212.96-365.58,318.13-548.87,6.35-5.65,14.22-10.18,22.82-11.18Z" fill="#1a1a1a"/>
  <path d="M506.53,248.78c4.04-.92,8.88-.4,11.14,3.43l326.93,567.08c1.76,8.49-3.62,11.64-11.24,12.31H189.27c-7.73-.52-15.82-1.48-14.41-11.46,108.03-189.81,218.47-378.4,327.11-567.93,1.01-1.69,2.63-2.99,4.56-3.43Z" fill="#231f20"/>
</svg>